<?xml version="1.0" encoding="UTF-8" standalone="no"?>
<svg
   fill="none"
   viewBox="0 0 49 49"
   version="1.1"
   id="svg13"
   sodipodi:docname="sunny_with_cloudy_light.svg"
   inkscape:version="1.4.2 (ebf0e940, 2025-05-08)"
   xmlns:inkscape="http://www.inkscape.org/namespaces/inkscape"
   xmlns:sodipodi="http://sodipodi.sourceforge.net/DTD/sodipodi-0.dtd"
   xmlns="http://www.w3.org/2000/svg"
   xmlns:svg="http://www.w3.org/2000/svg">
  <sodipodi:namedview
     id="namedview13"
     pagecolor="#ffffff"
     bordercolor="#000000"
     borderopacity="0.25"
     inkscape:showpageshadow="2"
     inkscape:pageopacity="0.0"
     inkscape:pagecheckerboard="0"
     inkscape:deskcolor="#d1d1d1"
     inkscape:zoom="5.3"
     inkscape:cx="23.679245"
     inkscape:cy="24.528302"
     inkscape:window-width="1392"
     inkscape:window-height="803"
     inkscape:window-x="212"
     inkscape:window-y="25"
     inkscape:window-maximized="0"
     inkscape:current-layer="g4" />
  <g
     clip-path="url(#a)"
     id="g4">
    <path
       fill="url(#c)"
       d="M24.942 46.417h-.046c-3.023 0-5.467-2.433-5.467-5.426 0-.223.013-.442.04-.657.019-.157.18-.334.468-.352a10.183 10.183 0 0 0 6.077-2.498l-.328-.376.328.376a2.21 2.21 0 0 1 1.304-.54 10.212 10.212 0 0 0 9.25-7.865c.063-.268.258-.416.438-.423.107-.003.215-.005.322-.005 4.946 0 8.949 3.98 8.949 8.883 0 4.787-3.817 8.695-8.6 8.877l-.184.006H24.942Z"
       id="path2" />
    <path
       stroke="url(#d)"
       d="M24.942 46.417h-.046c-3.023 0-5.467-2.433-5.467-5.426 0-.223.013-.442.04-.657.019-.157.18-.334.468-.352a10.183 10.183 0 0 0 6.077-2.498l-.328-.376.328.376a2.21 2.21 0 0 1 1.304-.54 10.212 10.212 0 0 0 9.25-7.865c.063-.268.258-.416.438-.423.107-.003.215-.005.322-.005 4.946 0 8.949 3.98 8.949 8.883 0 4.787-3.817 8.695-8.6 8.877l-.184.006H24.942Z"
       id="path3" />
    <path
       stroke="url(#e)"
       d="M24.942 46.417h-.046c-3.023 0-5.467-2.433-5.467-5.426 0-.223.013-.442.04-.657.019-.157.18-.334.468-.352a10.183 10.183 0 0 0 6.077-2.498l-.328-.376.328.376a2.21 2.21 0 0 1 1.304-.54 10.212 10.212 0 0 0 9.25-7.865c.063-.268.258-.416.438-.423.107-.003.215-.005.322-.005 4.946 0 8.949 3.98 8.949 8.883 0 4.787-3.817 8.695-8.6 8.877l-.184.006H24.942Z"
       id="path4" />
    <ellipse
       style="fill:#f1c100;fill-opacity:1;stroke-width:0.815854"
       id="path5"
       ry="16.351416"
       rx="17.101416"
       cy="20.351416"
       cx="20.101416" />
  </g>
  <defs
     id="defs13">
    <radialGradient
       id="b"
       cx="0"
       cy="0"
       r="1"
       gradientTransform="rotate(64.537 -4.905 20.132) scale(18.2404)"
       gradientUnits="userSpaceOnUse">
      <stop
         offset=".016"
         stop-color="#FFBB29"
         id="stop4" />
      <stop
         offset=".531"
         stop-color="#FCB224"
         id="stop5" />
      <stop
         offset=".99"
         stop-color="#E47100"
         id="stop6" />
    </radialGradient>
    <radialGradient
       id="c"
       cx="0"
       cy="0"
       r="1"
       gradientTransform="matrix(-15.37413 -15.50889 37.30803 -36.98386 42.135 45.321)"
       gradientUnits="userSpaceOnUse">
      <stop
         stop-color="#B4B4B4"
         id="stop7" />
      <stop
         offset=".298"
         stop-color="#B4B4B4"
         id="stop8" />
      <stop
         offset="1"
         stop-color="#E3E3E3"
         id="stop9" />
    </radialGradient>
    <linearGradient
       id="d"
       x1="36.485"
       x2="40.723"
       y1="36.929"
       y2="46.01"
       gradientUnits="userSpaceOnUse">
      <stop
         stop-color="#80868B"
         stop-opacity="0"
         id="stop10" />
      <stop
         offset="1"
         stop-color="#80868B"
         id="stop11" />
    </linearGradient>
    <linearGradient
       id="e"
       x1="43.447"
       x2="21.35"
       y1="28.151"
       y2="36.626"
       gradientUnits="userSpaceOnUse">
      <stop
         stop-color="#81878C"
         id="stop12" />
      <stop
         offset="1"
         stop-color="#C3C5C6"
         stop-opacity="0"
         id="stop13" />
    </linearGradient>
    <clipPath
       id="a">
      <path
         fill="#fff"
         d="M.777.918h48v48h-48z"
         id="path13" />
    </clipPath>
    <linearGradient
       id="a-4"
       x1="20.741695"
       x2="19.914391"
       y1="-11.398685"
       y2="75.054588"
       gradientTransform="scale(1.0153461,0.9848858)"
       gradientUnits="userSpaceOnUse">
      <stop
         offset="0.27"
         stop-color="#F1C100"
         id="stop1" />
      <stop
         offset="1"
         stop-color="#F39607"
         id="stop2" />
    </linearGradient>
  </defs>
</svg>
