<?xml version="1.0" encoding="UTF-8" standalone="no"?>
<svg
   fill="none"
   viewBox="0 0 48 48"
   version="1.1"
   id="svg6"
   sodipodi:docname="violent_rain_showers.svg"
   inkscape:version="1.4.2 (ebf0e940, 2025-05-08)"
   xmlns:inkscape="http://www.inkscape.org/namespaces/inkscape"
   xmlns:sodipodi="http://sodipodi.sourceforge.net/DTD/sodipodi-0.dtd"
   xmlns="http://www.w3.org/2000/svg"
   xmlns:svg="http://www.w3.org/2000/svg">
  <sodipodi:namedview
     id="namedview6"
     pagecolor="#ffffff"
     bordercolor="#000000"
     borderopacity="0.25"
     inkscape:showpageshadow="2"
     inkscape:pageopacity="0.0"
     inkscape:pagecheckerboard="0"
     inkscape:deskcolor="#d1d1d1"
     inkscape:zoom="17.333333"
     inkscape:cx="23.971154"
     inkscape:cy="23.971154"
     inkscape:window-width="1800"
     inkscape:window-height="1186"
     inkscape:window-x="239"
     inkscape:window-y="25"
     inkscape:window-maximized="0"
     inkscape:current-layer="svg6" />
  <path
     fill="url(#a)"
     d="M20.83 5.623a4.674 4.674 0 0 1 4.346 4.346 4.672 4.672 0 0 0 1.142 2.757 4.675 4.675 0 0 1 0 6.146 4.672 4.672 0 0 0-1.142 2.757 4.674 4.674 0 0 1-4.346 4.346 4.672 4.672 0 0 0-2.757 1.142 4.675 4.675 0 0 1-6.146 0 4.672 4.672 0 0 0-2.757-1.142 4.674 4.674 0 0 1-4.346-4.346 4.672 4.672 0 0 0-1.142-2.757 4.675 4.675 0 0 1 0-6.146 4.672 4.672 0 0 0 1.142-2.757A4.674 4.674 0 0 1 9.17 5.623a4.672 4.672 0 0 0 2.757-1.142 4.675 4.675 0 0 1 6.146 0 4.672 4.672 0 0 0 2.757 1.142Z"
     id="path1" />
  <path
     fill="url(#b)"
     fill-opacity=".92"
     fill-rule="evenodd"
     d="M47 16.5c0 8.358-6.662 15.171-15 15.488V32H11v-.002l-.143.001C5.413 31.999 1 27.616 1 22.21c0-5.407 4.413-9.79 9.857-9.79 1.889 0 3.654.528 5.154 1.444C17.271 6.559 23.678 1 31.393 1 40.013 1 47 7.939 47 16.5Z"
     clip-rule="evenodd"
     id="path2" />
  <defs
     id="defs6">
    <linearGradient
       id="a"
       x1="6.146"
       x2="23.264"
       y1="-2.499"
       y2="35.868"
       gradientUnits="userSpaceOnUse">
      <stop
         offset=".37"
         stop-color="#F1C100"
         id="stop3" />
      <stop
         offset="1"
         stop-color="#F39607"
         id="stop4" />
    </linearGradient>
    <linearGradient
       id="b"
       x1="30.9"
       x2="8.558"
       y1="30.083"
       y2="11.527"
       gradientUnits="userSpaceOnUse">
      <stop
         stop-color="#B5B5B5"
         id="stop5" />
      <stop
         offset="1"
         stop-color="#E3E3E3"
         id="stop6" />
    </linearGradient>
  </defs>
  <path
     fill="#0b57d0"
     d="m 16.0001,33 -4.243,4.101 a 5.663,5.663 0 0 0 0,8.201 c 2.343,2.264 6.142,2.264 8.486,0 a 5.663,5.663 0 0 0 0,-8.201 l -0.038,-0.036 z m 8,-13 -4.243,4.101 a 5.663,5.663 0 0 0 0,8.201 c 2.343,2.264 6.142,2.264 8.486,0 a 5.663,5.663 0 0 0 0,-8.201 l -0.038,-0.036 z m 8,13 -4.243,4.101 a 5.663,5.663 0 0 0 0,8.201 c 2.343,2.264 6.142,2.264 8.486,0 a 5.663,5.663 0 0 0 0,-8.201 l -0.038,-0.036 z m -25,-11 -4.243,4.101 a 5.662,5.662 0 0 0 0,8.2 c 2.344,2.265 6.143,2.265 8.486,0 a 5.662,5.662 0 0 0 0,-8.2 l -0.038,-0.036 z m 34,-2 -4.243,4.101 a 5.662,5.662 0 0 0 0,8.2 c 2.344,2.265 6.143,2.265 8.486,0 a 5.662,5.662 0 0 0 0,-8.2 l -0.038,-0.036 z"
     id="path2-1" />
</svg>
