<?xml version="1.0" encoding="UTF-8" standalone="no"?>
<svg
   fill="none"
   viewBox="0 0 48 48"
   version="1.1"
   id="svg3"
   sodipodi:docname="light_drizzle.svg"
   inkscape:version="1.4.2 (ebf0e940, 2025-05-08)"
   xmlns:inkscape="http://www.inkscape.org/namespaces/inkscape"
   xmlns:sodipodi="http://sodipodi.sourceforge.net/DTD/sodipodi-0.dtd"
   xmlns="http://www.w3.org/2000/svg"
   xmlns:svg="http://www.w3.org/2000/svg">
  <sodipodi:namedview
     id="namedview3"
     pagecolor="#ffffff"
     bordercolor="#000000"
     borderopacity="0.25"
     inkscape:showpageshadow="2"
     inkscape:pageopacity="0.0"
     inkscape:pagecheckerboard="0"
     inkscape:deskcolor="#d1d1d1"
     inkscape:zoom="6.97"
     inkscape:cx="24.031564"
     inkscape:cy="23.888092"
     inkscape:window-width="1216"
     inkscape:window-height="770"
     inkscape:window-x="0"
     inkscape:window-y="25"
     inkscape:window-maximized="0"
     inkscape:current-layer="svg3" />
  <path
     fill="url(#a)"
     fill-opacity=".92"
     fill-rule="evenodd"
     d="M47 16.5c0 8.358-6.662 15.171-15 15.488V32H11v-.002l-.143.001C5.413 31.999 1 27.616 1 22.21c0-5.407 4.413-9.79 9.857-9.79 1.889 0 3.654.528 5.154 1.444C17.271 6.559 23.678 1 31.393 1 40.013 1 47 7.939 47 16.5Z"
     clip-rule="evenodd"
     id="path1" />
  <path
     fill="#0b57d0"
     d="m 23.784792,29 -1.65588,1.747485 a 2.2100519,2.4130718 0 0 0 0,3.494544 c 0.914384,0.964718 2.396988,0.964718 3.311761,0 a 2.2100519,2.4130718 0 0 0 0,-3.494544 l -0.01484,-0.01534 z"
     id="path2"
     style="stroke-width:0.407793" />
  <defs
     id="defs3">
    <linearGradient
       id="a"
       x1="30.9"
       x2="8.558"
       y1="30.083"
       y2="11.527"
       gradientUnits="userSpaceOnUse">
      <stop
         stop-color="#B5B5B5"
         id="stop2" />
      <stop
         offset="1"
         stop-color="#E3E3E3"
         id="stop3" />
    </linearGradient>
  </defs>
  <path
     fill="#0b57d0"
     d="m 26.797704,35.312769 -1.65588,1.747485 a 2.2100519,2.4130718 0 0 0 0,3.494544 c 0.914384,0.964718 2.396988,0.964718 3.311761,0 a 2.2100519,2.4130718 0 0 0 0,-3.494544 l -0.01484,-0.01534 z"
     id="path3"
     style="stroke-width:0.407793" />
</svg>
