<?xml version="1.0" encoding="UTF-8" standalone="no"?>
<svg
   fill="none"
   viewBox="0 0 48 48"
   version="1.1"
   id="svg6"
   sodipodi:docname="very_hot.svg"
   inkscape:version="1.4.2 (ebf0e940, 2025-05-08)"
   xmlns:inkscape="http://www.inkscape.org/namespaces/inkscape"
   xmlns:sodipodi="http://sodipodi.sourceforge.net/DTD/sodipodi-0.dtd"
   xmlns="http://www.w3.org/2000/svg"
   xmlns:svg="http://www.w3.org/2000/svg">
  <sodipodi:namedview
     id="namedview6"
     pagecolor="#ffffff"
     bordercolor="#000000"
     borderopacity="0.25"
     inkscape:showpageshadow="2"
     inkscape:pageopacity="0.0"
     inkscape:pagecheckerboard="0"
     inkscape:deskcolor="#d1d1d1"
     inkscape:zoom="5.4"
     inkscape:cx="23.240741"
     inkscape:cy="24.074074"
     inkscape:window-width="1400"
     inkscape:window-height="847"
     inkscape:window-x="0"
     inkscape:window-y="25"
     inkscape:window-maximized="1"
     inkscape:current-layer="g5" />
  <g
     clip-path="url(#a)"
     id="g5">
    <ellipse
       style="fill:#f1c100;fill-opacity:1;stroke-width:1.04644"
       id="path5"
       ry="21.536602"
       rx="21.360676"
       cy="24.314381"
       cx="23.953274" />
    <path
       fill="#ababab"
       fill-rule="evenodd"
       d="m 35.947378,4 a 6.5,6.5 0 0 0 -6.5,6.5 v 19.359 a 9.973,9.973 0 0 0 -3.077,7.217 c 0,5.522 4.477,10 10,10 5.523,0 10,-4.478 10,-10 a 9.969,9.969 0 0 0 -3.077,-7.216 l 0.001,-0.052 V 10.5 a 6.5,6.5 0 0 0 -6.5,-6.5 z"
       clip-rule="evenodd"
       id="path1" />
    <path
       fill="#ffffff"
       fill-rule="evenodd"
       d="m 36.371378,6.513 a 3.75,3.75 0 0 0 -3.75,3.75 V 31.27 a 6.923,6.923 0 1 0 7.5,-0.001 V 10.263 a 3.75,3.75 0 0 0 -3.75,-3.75 z"
       clip-rule="evenodd"
       id="path2" />
    <path
       fill="#ea4335"
       d="m 36.371378,34.003 a 3.75,3.75 0 1 1 0,7.5 3.75,3.75 0 0 1 0,-7.5 z"
       id="path3" />
    <path
       fill="#ea4335"
       d="m 36.370378,12 a 1.333,1.333 0 0 1 1.333,1.333 v 21.334 a 1.333,1.333 0 1 1 -2.666,0 V 13.333 a 1.333,1.333 0 0 1 1.333,-1.333 z"
       id="path4" />
  </g>
  <defs
     id="defs6">
    <linearGradient
       id="b"
       x1="21.085"
       x2="19.378"
       y1="-30.259"
       y2="64.194"
       gradientUnits="userSpaceOnUse">
      <stop
         offset=".287"
         stop-color="#FCCC41"
         id="stop5" />
      <stop
         offset="1"
         stop-color="#E34E00"
         id="stop6" />
    </linearGradient>
    <clipPath
       id="a">
      <path
         fill="#fff"
         d="M0 0h48v48H0z"
         id="path6" />
    </clipPath>
  </defs>
</svg>
